<svg xmlns="http://www.w3.org/2000/svg" xmlns:xlink="http://www.w3.org/1999/xlink" version="1.1" x="0px" y="0px" viewBox="0 0 1024 1280" style="enable-background:new 0 0 1024 1024;" xml:space="preserve"><g><g><path d="M512,763.4c15.5,0,31.5-6.3,42.5-17.4c11.6-11.8,17.6-26.8,18.1-43.2c0.2-5.7-0.9-11.6-2.5-17.2    c-2.7-9.2-8-18.5-14.8-25.3c-5.8-5.8-12.2-9.8-19.6-12.9c-7.7-3.3-14.9-5.2-23.6-5.2c-5.3,0-11.5,1-16.6,2.3    c-9.1,2.4-19.1,8.3-25.8,15c-11.1,11.1-18.7,27.3-18.1,43.2c0.5,15.7,6,30.6,17,42C480.3,757.2,495.3,762.5,512,763.4    c12.4,0.7,26.8-6.1,35.4-14.6c8.7-8.7,15.2-22.9,14.6-35.4c-0.6-12.9-4.8-26.3-14.6-35.4c-10.1-9.2-21.6-13.9-35.4-14.6    c-0.4,0-0.8,0-1.2-0.1c4.4,0.6,8.9,1.2,13.3,1.8c-1.2-0.2-2.1-0.4-3.2-0.9c4,1.7,8,3.4,11.9,5c-0.7-0.3-1.3-0.7-1.9-1.1    c3.4,2.6,6.7,5.2,10.1,7.8c-0.9-0.7-1.6-1.4-2.3-2.3c2.6,3.4,5.2,6.7,7.8,10.1c-0.4-0.6-0.8-1.2-1.1-1.9c1.7,4,3.4,8,5,11.9    c-0.4-1.1-0.7-2.1-0.9-3.2c0.6,4.4,1.2,8.9,1.8,13.3c-0.1-1.5-0.1-0.8,0-2.3c-0.6,4.4-1.2,8.9-1.8,13.3c0.2-1.2,0.4-2.1,0.9-3.2    c-1.7,4-3.4,8-5,11.9c0.3-0.7,0.7-1.3,1.1-1.9c-2.6,3.4-5.2,6.7-7.8,10.1c0.7-0.9,1.4-1.6,2.3-2.3c-3.4,2.6-6.7,5.2-10.1,7.8    c0.6-0.4,1.2-0.8,1.9-1.1c-4,1.7-8,3.4-11.9,5c1.1-0.4,2.1-0.7,3.2-0.9c-4.4,0.6-8.9,1.2-13.3,1.8c1.5-0.1,0.8-0.1,2.3,0    c-4.4-0.6-8.9-1.2-13.3-1.8c1.2,0.2,2.1,0.4,3.2,0.9c-4-1.7-8-3.4-11.9-5c0.7,0.3,1.3,0.7,1.9,1.1c-3.4-2.6-6.7-5.2-10.1-7.8    c0.9,0.7,1.6,1.4,2.3,2.3c-2.6-3.4-5.2-6.7-7.8-10.1c0.4,0.6,0.8,1.2,1.1,1.9c-1.7-4-3.4-8-5-11.9c0.4,1.1,0.7,2.1,0.9,3.2    c-0.6-4.4-1.2-8.9-1.8-13.3c0.1,1.5,0.1,0.8,0,2.3c0.6-4.4,1.2-8.9,1.8-13.3c-0.2,1.2-0.4,2.1-0.9,3.2c1.7-4,3.4-8,5-11.9    c-0.3,0.7-0.7,1.3-1.1,1.9c2.6-3.4,5.2-6.7,7.8-10.1c-0.7,0.9-1.4,1.6-2.3,2.3c3.4-2.6,6.7-5.2,10.1-7.8c-0.6,0.4-1.2,0.8-1.9,1.1    c4-1.7,8-3.4,11.9-5c-1.1,0.4-2.1,0.7-3.2,0.9c4.4-0.6,8.9-1.2,13.3-1.8c-0.4,0-0.8,0.1-1.2,0.1c-12.8,0-26.3,5.6-35.4,14.6    c-8.7,8.7-15.2,22.9-14.6,35.4c0.6,12.9,4.8,26.3,14.6,35.4C486.4,757.7,498.5,763.4,512,763.4z"/></g></g><g><g><path d="M462,291.7c0,29.6,0,59.2,0,88.7c0,47.2,0,94.4,0,141.5c0,10.9,0,21.8,0,32.6c0,12.8,5.6,26.3,14.6,35.4    c8.7,8.7,22.9,15.2,35.4,14.6c12.9-0.6,26.3-4.8,35.4-14.6c9-9.8,14.6-21.8,14.6-35.4c0-29.6,0-59.2,0-88.7c0-47.2,0-94.4,0-141.5    c0-10.9,0-21.8,0-32.6c0-12.8-5.6-26.3-14.6-35.4c-8.7-8.7-22.9-15.2-35.4-14.6c-12.9,0.6-26.3,4.8-35.4,14.6    C467.7,266.1,462,278.1,462,291.7L462,291.7z"/></g></g><g><g><path d="M901.5,512c0,20-1.4,39.9-4,59.7c0.6-4.4,1.2-8.9,1.8-13.3c-5.2,37.9-15.3,75.1-30.1,110.4    c1.7-4,3.4-8,5-11.9c-14.7,34.9-33.9,67.8-57,97.8c2.6-3.4,5.2-6.7,7.8-10.1c-23.3,30.1-50.3,57.2-80.4,80.4    c3.4-2.6,6.7-5.2,10.1-7.8c-30,23.1-62.9,42.2-97.8,57c4-1.7,8-3.4,11.9-5c-35.3,14.8-72.5,24.9-110.4,30.1    c4.4-0.6,8.9-1.2,13.3-1.8c-39.6,5.3-79.9,5.3-119.5,0c4.4,0.6,8.9,1.2,13.3,1.8c-37.9-5.2-75.1-15.3-110.4-30.1    c4,1.7,8,3.4,11.9,5c-34.9-14.7-67.8-33.9-97.8-57c3.4,2.6,6.7,5.2,10.1,7.8c-30.1-23.3-57.2-50.3-80.4-80.4    c2.6,3.4,5.2,6.7,7.8,10.1c-23.1-30-42.2-62.9-57-97.8c1.7,4,3.4,8,5,11.9c-14.8-35.3-24.9-72.5-30.1-110.4    c0.6,4.4,1.2,8.9,1.8,13.3c-5.3-39.6-5.3-79.9,0-119.5c-0.6,4.4-1.2,8.9-1.8,13.3c5.2-37.9,15.3-75.1,30.1-110.4    c-1.7,4-3.4,8-5,11.9c14.7-34.9,33.9-67.8,57-97.8c-2.6,3.4-5.2,6.7-7.8,10.1c23.3-30.1,50.3-57.2,80.4-80.4    c-3.4,2.6-6.7,5.2-10.1,7.8c30-23.1,62.9-42.2,97.8-57c-4,1.7-8,3.4-11.9,5c35.3-14.8,72.5-24.9,110.4-30.1    c-4.4,0.6-8.9,1.2-13.3,1.8c39.6-5.3,79.9-5.3,119.5,0c-4.4-0.6-8.9-1.2-13.3-1.8c37.9,5.2,75.1,15.3,110.4,30.1    c-4-1.7-8-3.4-11.9-5c34.9,14.7,67.8,33.9,97.8,57c-3.4-2.6-6.7-5.2-10.1-7.8c30.1,23.3,57.2,50.3,80.4,80.4    c-2.6-3.4-5.2-6.7-7.8-10.1c23.1,30,42.2,62.9,57,97.8c-1.7-4-3.4-8-5-11.9c14.8,35.3,24.9,72.5,30.1,110.4    c-0.6-4.4-1.2-8.9-1.8-13.3C900.1,472.1,901.4,492,901.5,512c0,12.8,5.6,26.3,14.6,35.4c8.7,8.7,22.9,15.2,35.4,14.6    c12.9-0.6,26.3-4.8,35.4-14.6c9-9.8,14.7-21.8,14.6-35.4c-0.1-50.2-7.6-101.2-23.1-149c-15.1-46.4-36.7-91.2-65-131    c-15.1-21.2-31.6-41.7-49.7-60.5c-18.1-18.7-37.8-35.2-58.4-51C766.3,90.6,722.8,68,676.8,51.1c-47-17.3-97.3-26.3-147.2-28.3    c-50.6-2-102.4,4.3-151.2,18.1c-46.7,13.3-92.3,33.7-132.9,60.4c-40.4,26.6-77.5,58.7-108.3,96c-16.5,20-32,41-45.3,63.2    c-13.6,22.7-24.7,46.6-34.7,71c-19.1,46.5-29.5,96-33.3,146.1c-3.9,50.6,0.9,102.3,12.8,151.6c11.5,47.5,30.9,94,56.3,135.8    c24.9,41,56.1,79.1,92,111c36.3,32.2,77,59.9,121.3,79.9c24.1,10.9,48.7,20.5,74.1,27.6c26.3,7.3,53,11.8,80.1,14.9    c50.7,5.9,102.3,2.6,152.2-7.5c48.2-9.7,95.2-27.7,138.1-51.7c41.9-23.4,81-53.6,114.1-88.3c33.4-34.9,62.4-75.1,83.9-118.4    c22-44.2,38.2-91.4,45.7-140.2c4.1-26.7,6.9-53.5,6.9-80.5c0-12.8-5.6-26.3-14.6-35.4c-8.7-8.7-22.9-15.2-35.4-14.6    c-12.9,0.6-26.3,4.8-35.4,14.6C907.1,486.4,901.5,498.4,901.5,512z"/></g></g></svg>