<svg id="PRINT" xmlns="http://www.w3.org/2000/svg" viewBox="0 0 119.58 90.8"><defs><style>.cls-1{fill:#f7a634;}.cls-2{fill:#e83d3e;}.cls-3{fill:#010101;}.cls-4{fill:#fee7d5;}.cls-5{fill:#ed8c2d;}.cls-6{fill:#dc2e32;}</style></defs><path class="cls-1" d="M118.16,51.7q-2.28-6.11-4.55-12.23a2.43,2.43,0,0,0-2.49-1.9q-4-15.53-8-31.07c-.57-2.16-1.33-4.6-3.34-5.58C98.06.1,96,.6,94.24,1.12L7.29,25.89c-2.19.62-4.59,1.4-5.73,3.38S1,34,1.71,36.33Q5.65,49.44,9.59,62.56C9,62.07,8.34,63.32,8,64a3.87,3.87,0,0,0,0,2.26c1.21,5.55,2.4,11.1,3.61,16.65a4.55,4.55,0,0,0,1.07,2.47c.65.64,2.13,1,2.63.2-.93,1.39.2,3.39,1.76,4s3.3.2,4.93-.2l7.68-1.87Q66,78.68,102.2,69.87l9.15-2.23c1.84-.45,3.79-1,5-2.41s1.59-4.84-.15-5.54a3.59,3.59,0,0,0,2.89-3.33A10.42,10.42,0,0,0,118.16,51.7ZM41.55,52a9.17,9.17,0,0,1-9.89,1.9c-4.28-1.78-5.34-6.15-4.42-10.35a1.55,1.55,0,0,1,1-1.2,8.58,8.58,0,0,1,4.4-3.52A6.93,6.93,0,0,1,40,40C43.18,42.93,44.88,48.5,41.55,52ZM87.38,34.68c.68,5.31-5,9.69-10,9.14s-7-6.42-6.53-10.76a2,2,0,0,1,.4-1c0-3.52,4.92-3.95,7.45-3.61C82.07,28.93,86.87,30.63,87.38,34.68Z"/><path class="cls-2" d="M102.2,69.87,29.73,87.55a14.74,14.74,0,0,1,5.6-12.72c3.07-2.52,7-4.07,10.82-5.5Q56.74,65.4,67.62,62.2a69.12,69.12,0,0,1,15-3.11c5.09-.31,10.32.47,14.22,3A11.22,11.22,0,0,1,102.2,69.87Z"/><path class="cls-3" d="M37.82,77.2a2.75,2.75,0,0,1,5.21.65,2.75,2.75,0,1,1-5.21-.65Z"/><path class="cls-3" d="M48.94,71.67a2.24,2.24,0,1,1-.29,3A2.33,2.33,0,0,1,48.94,71.67Z"/><path class="cls-3" d="M78.26,63.67A2.34,2.34,0,1,1,75,66.38,2.46,2.46,0,0,1,78.26,63.67Z"/><path class="cls-3" d="M89.48,68.49a2.91,2.91,0,0,1-2-5.28,2.92,2.92,0,1,1,2,5.28Z"/><path class="cls-4" d="M109.93,61.41a2.12,2.12,0,0,1,3.73,2,2.11,2.11,0,1,1-3.73-2Z"/><path class="cls-4" d="M17.81,84.1a2.11,2.11,0,1,1,.79,3A2.19,2.19,0,0,1,17.81,84.1Z"/><path class="cls-4" d="M95.67,4.67a2.22,2.22,0,0,1,2.88-.75,2.22,2.22,0,0,1,.84,2.86,2.24,2.24,0,0,1-3,.86A2.23,2.23,0,0,1,95.67,4.67Z"/><path class="cls-4" d="M5.71,30.05a1.81,1.81,0,0,1-.09,2.85A1.81,1.81,0,0,1,3,31.74,1.81,1.81,0,0,1,5.71,30.05Z"/><path class="cls-2" d="M102.94,34c-1.4-4.66-2.78-9.32-4.18-14-.9-3-2-6.29-4.75-7.83s-6-.83-9-.11L23.15,27a31.79,31.79,0,0,0-8.62,3A10.91,10.91,0,0,0,9,36.91c-.51,2.55.22,5.15.93,7.63Q12,51.65,14.06,58.78c.73,2.56,1.64,5.36,3.93,6.74s5.39.86,8.08.25L91.19,50.93c5.08-1.16,11-3,12.55-8C104.68,40.08,103.81,37,102.94,34ZM43.12,48c-.45,3.78-4.61,7.43-8.52,6.36-6.21-1.69-8.94-12.13-2.09-14.76a1.65,1.65,0,0,1,.91-.1,2,2,0,0,1,1-.3C39.1,39.07,43.71,43.11,43.12,48Zm41.85-5c-3.29,2.22-7.9,1.49-10.91-.89C70.43,39.32,70,34.79,72.45,31a1.76,1.76,0,0,1,2.1-.76c3.13-3.37,8.49-2.38,11.44,1S89.12,40.27,85,43.08Z"/><path class="cls-4" d="M91.23,36.43q-1.14-3.49-2.27-7c-.49-1.5-1.12-3.13-3-3.77s-4.33-.09-6.54.45L33.49,37.28a35.31,35.31,0,0,0-6.45,2c-2,.93-3.82,2.31-4.43,3.88a5.62,5.62,0,0,0,.26,3.88c.73,2.37,1.46,4.74,2.21,7.1.39,1.28.9,2.67,2.48,3.25s3.88.14,5.88-.33L81.72,45.78c3.75-.87,8.15-2.17,9.59-4.79C92.16,39.45,91.69,37.88,91.23,36.43ZM41.88,49.09A6.93,6.93,0,0,1,33,53a6.94,6.94,0,0,1-3.29-9.19,6.86,6.86,0,0,1,7.61-3.37A6.92,6.92,0,0,1,41.88,49.09ZM85.12,40a6.52,6.52,0,0,1-6,2.89,7.35,7.35,0,0,1-6.33-9.82,8.46,8.46,0,0,1,9.51-1.86C85.38,32.76,86.91,37,85.12,40Z"/><path class="cls-1" d="M69.72,41.71a5.87,5.87,0,0,1-2.62,2.92,17.79,17.79,0,0,1-5.48,1.88l-2,.41L55,47.87c-2.46.52-5.17,1-7.39-.19a5.36,5.36,0,0,1-2.25-6.83c1.31-2.61,4.51-3.49,7.35-4.13l1.9-.42h0l5.45-1.21A25.7,25.7,0,0,1,63,34.58a7.88,7.88,0,0,1,3.49.33A5.5,5.5,0,0,1,69.72,41.71Z"/><path class="cls-5" d="M109.94,43.07c-.29-.72-1.35-.12-1,.59l3.83,9.26c.3.72,1.35.12,1.06-.59Z"/><path class="cls-5" d="M106.11,46.7a.6.6,0,0,0-1.17.29l2.6,9.74a.61.61,0,0,0,1.18-.29Z"/><path class="cls-5" d="M100.72,50.31q.73,3.34,1.49,6.7a.6.6,0,0,0,1.17-.29q-.73-3.36-1.49-6.7A.6.6,0,0,0,100.72,50.31Z"/><path class="cls-5" d="M97,53.09a.6.6,0,0,0-1.17.29c.41,1.63.81,3.26,1.22,4.9A.6.6,0,0,0,98.23,58C97.83,56.36,97.42,54.72,97,53.09Z"/><path class="cls-5" d="M93,53.88c-.26-.72-1.44-.44-1.17.29l1.3,3.63c.27.72,1.44.44,1.18-.29Z"/><path class="cls-5" d="M12.52,70.16c.59,2.63,1.19,5.25,1.78,7.88a.61.61,0,0,0,1.18-.29c-.6-2.63-1.19-5.25-1.79-7.88A.6.6,0,0,0,12.52,70.16Z"/><path class="cls-5" d="M17.58,70.16c.57,2.43,1.15,4.85,1.72,7.27a.61.61,0,0,0,1.18-.29c-.58-2.42-1.15-4.84-1.73-7.27A.6.6,0,0,0,17.58,70.16Z"/><path class="cls-5" d="M24,69.21a.61.61,0,0,0-1.18.29q1,3.9,2.09,7.8A.61.61,0,0,0,26.06,77Z"/><path class="cls-5" d="M29.2,67.51,30.79,74A.61.61,0,0,0,32,73.68l-1.6-6.46A.6.6,0,0,0,29.2,67.51Z"/><path class="cls-5" d="M34.64,66,36.13,72a.61.61,0,0,0,1.18-.29l-1.5-6.08A.6.6,0,0,0,34.64,66Z"/><path class="cls-5" d="M40.82,65.06c-.21-.75-1.39-.46-1.18.29.49,1.76,1,3.51,1.46,5.26.21.75,1.38.46,1.17-.29C41.79,68.57,41.3,66.82,40.82,65.06Z"/><path class="cls-5" d="M45.31,63.75l.92,3.72a.6.6,0,0,0,1.17-.29l-.91-3.72A.61.61,0,0,0,45.31,63.75Z"/><path class="cls-5" d="M53.61,61.55c-.32-.71-1.37-.11-1.06.6.47,1.06.94,2.12,1.42,3.18.31.71,1.37.11,1.05-.59Z"/><path class="cls-5" d="M60.78,59.58c-.31-.71-1.36-.12-1.06.59l1.37,3.21c.3.72,1.36.12,1-.59Z"/><path class="cls-5" d="M66.37,57.79c-.32-.71-1.37-.12-1.05.59.47,1.06,1,2.12,1.43,3.18.32.71,1.37.11,1-.59C67.33,59.91,66.85,58.85,66.37,57.79Z"/><path class="cls-5" d="M73.08,60.29l-1.66-2.5c-.43-.65-1.49-.06-1.06.59L72,60.88C72.45,61.53,73.51,60.94,73.08,60.29Z"/><path class="cls-5" d="M78.41,59.18l-1.56-2.94a.61.61,0,0,0-1.06.59l1.56,2.94A.61.61,0,0,0,78.41,59.18Z"/><path class="cls-5" d="M85.18,57.93l-1.6-3.14c-.35-.7-1.41-.11-1.06.59.54,1,1.07,2.09,1.6,3.14C84.47,59.21,85.53,58.62,85.18,57.93Z"/><path class="cls-5" d="M88.6,54.39c-.3-.72-1.36-.12-1,.59l1.51,3.58c.3.71,1.36.12,1-.6C89.61,56.77,89.11,55.58,88.6,54.39Z"/><path class="cls-5" d="M91,5.39,73.79,9c-.76.16-.47,1.34.29,1.18l17.2-3.58C92,6.41,91.75,5.24,91,5.39Z"/><path class="cls-5" d="M100.76,8.6c-.29-.72-1.35-.12-1.05.59A64.9,64.9,0,0,1,104,25.4c.1.77,1.28.47,1.17-.29A65.55,65.55,0,0,0,100.76,8.6Z"/><path class="cls-6" d="M36.39,27.39c-6.52,1.07-14,1.32-19.88,4.64-3.92,2.22-6,7.06-4.24,11.26.31.72,1.36.12,1.06-.59C10.57,36.28,17.52,32.24,22.65,31c4.58-1.13,9.38-1.63,14-2.4C37.46,28.44,37.16,27.26,36.39,27.39Z"/><path class="cls-6" d="M97.59,28.34a87,87,0,0,0-5.9-13.79c-.37-.69-1.42-.1-1.06.59A80.48,80.48,0,0,1,98.88,38c.42,2.31.21,4.56-1.47,6.32-1.41,1.49-4,2-5.89,2.64L79.61,51.14c-.73.25-.45,1.43.29,1.17,5-1.75,10-3.48,14.93-5.27,2.71-1,5.15-2.78,5.38-5.88C100.52,36.84,98.89,32.39,97.59,28.34Z"/><path class="cls-6" d="M76.77,73.73l-5.43-8.65a.61.61,0,0,0-.84-.2.51.51,0,0,0-.41,0l-12,3.39a.37.37,0,0,0-.11,0,.6.6,0,0,0-.92.48l-.27,10.48a.61.61,0,0,0,1.21,0c.09-3.29.17-6.57.26-9.86h.12L59.88,69c.11,3.36.23,6.72.34,10.08,0,.78,1.24.81,1.21,0q-.18-5.22-.35-10.45l1.57-.44.6,9.46c0,.77,1.26.81,1.21,0-.21-3.27-.41-6.55-.62-9.83l1.58-.44q.48,4.5,1,9c.08.77,1.26.47,1.17-.29-.32-3-.65-6-1-9l1.08-.3,3.94,8.71c.32.72,1.37.12,1-.59l-3.81-8.45L70.38,66s.06,0,.09,0l5.24,8.35C76.12,75,77.18,74.39,76.77,73.73Z"/><path class="cls-6" d="M96.17,66.4A10.81,10.81,0,0,0,85.3,60.76c-.77.09-.47,1.27.29,1.18a9.59,9.59,0,0,1,9.53,5C95.48,67.68,96.54,67.09,96.17,66.4Z"/></svg>