<?xml version="1.0" encoding="UTF-8" standalone="no"?>
<svg
   xmlns:dc="http://purl.org/dc/elements/1.1/"
   xmlns:cc="http://creativecommons.org/ns#"
   xmlns:rdf="http://www.w3.org/1999/02/22-rdf-syntax-ns#"
   xmlns:svg="http://www.w3.org/2000/svg"
   xmlns="http://www.w3.org/2000/svg"
   xmlns:sodipodi="http://sodipodi.sourceforge.net/DTD/sodipodi-0.dtd"
   xmlns:inkscape="http://www.inkscape.org/namespaces/inkscape"
   width="256"
   height="256"
   viewBox="0 0 67.733332 67.733335"
   version="1.1"
   id="svg8"
   inkscape:version="1.0.1 (3bc2e813f5, 2020-09-07)"
   sodipodi:docname="music-placeholder.svg">
  <title
     id="title900">D:\Antonio\Courses\Ironhack\Module2\labs-mod-2\lab-express-spotify</title>
  <defs
     id="defs2">
    <filter
       inkscape:collect="always"
       style="color-interpolation-filters:sRGB"
       id="filter951"
       x="-0.030818541"
       width="1.061637"
       y="-0.030818541"
       height="1.061637">
      <feGaussianBlur
         inkscape:collect="always"
         stdDeviation="0.59005777"
         id="feGaussianBlur953" />
    </filter>
  </defs>
  <sodipodi:namedview
     id="base"
     pagecolor="#ffffff"
     bordercolor="#666666"
     borderopacity="1.0"
     inkscape:pageopacity="0.0"
     inkscape:pageshadow="2"
     inkscape:zoom="1.979899"
     inkscape:cx="8.1709282"
     inkscape:cy="164.968"
     inkscape:document-units="px"
     inkscape:current-layer="layer2"
     inkscape:document-rotation="0"
     showgrid="false"
     units="px"
     showguides="false"
     inkscape:window-width="1920"
     inkscape:window-height="1017"
     inkscape:window-x="1912"
     inkscape:window-y="99"
     inkscape:window-maximized="1" />
  <metadata
     id="metadata5">
    <rdf:RDF>
      <cc:Work
         rdf:about="">
        <dc:format>image/svg+xml</dc:format>
        <dc:type
           rdf:resource="http://purl.org/dc/dcmitype/StillImage" />
        <dc:title>D:\Antonio\Courses\Ironhack\Module2\labs-mod-2\lab-express-spotify</dc:title>
      </cc:Work>
    </rdf:RDF>
  </metadata>
  <g
     inkscape:groupmode="layer"
     id="layer2"
     inkscape:label="Layer 2">
    <path
       id="path833-6"
       style="opacity:0.998;fill:#000000;fill-opacity:1;stroke:none;stroke-width:29.5971;stroke-miterlimit:4;stroke-dasharray:none;filter:url(#filter951)"
       d="m 24.674969,16.395508 v 8.787054 18.543526 a 5.8598442,8.861839 53.134332 0 0 -9.941694,1.359797 5.8598442,8.861839 53.134332 0 0 -3.534207,10.002096 5.8598442,8.861839 53.134332 0 0 10.618792,-0.666147 5.8598442,8.861839 53.134332 0 0 4.364066,-7.624759 V 24.920327 l 28.616907,-4.979804 v 18.543108 a 5.8598442,8.861839 53.134332 0 0 -9.941695,1.360215 5.8598442,8.861839 53.134332 0 0 -3.534206,10.002096 5.8598442,8.861839 53.134332 0 0 10.618793,-0.666146 5.8598442,8.861839 53.134332 0 0 4.364064,-7.62476 V 19.678287 10.891235 Z" />
  </g>
  <g
     inkscape:label="Layer 1"
     inkscape:groupmode="layer"
     id="layer1">
    <path
       id="path833"
       style="opacity:0.998;fill:#808080;fill-opacity:1;stroke:none;stroke-width:29.5971;stroke-miterlimit:4;stroke-dasharray:none"
       d="m 23.616635,14.808006 v 8.787054 18.543527 a 5.8598445,8.8618393 53.134332 0 0 -9.941693,1.359796 5.8598445,8.8618393 53.134332 0 0 -3.534205,10.002098 5.8598445,8.8618393 53.134332 0 0 10.618789,-0.666148 5.8598445,8.8618393 53.134332 0 0 4.364066,-7.624761 V 23.332825 L 53.7405,18.353021 V 36.89613 A 5.8598445,8.8618393 53.134332 0 0 43.798807,38.256343 5.8598445,8.8618393 53.134332 0 0 40.2646,48.258442 5.8598445,8.8618393 53.134332 0 0 50.883392,47.592293 5.8598445,8.8618393 53.134332 0 0 55.247456,39.967535 V 18.090785 9.3037336 Z" />
  </g>
</svg>
