<svg width="600" height="180" viewBox="0 0 600 180" xmlns="http://www.w3.org/2000/svg"><title>spotify-logo</title><path d="M90.1567.2968C40.5156.2968.2716 40.4678.2716 90.0204c0 49.5546 40.244 89.7225 89.8851 89.7225 49.6465 0 89.8862-40.1679 89.8862-89.7225C180.043 40.471 139.8032.301 90.1556.301l.0011-.0043zm41.2208 129.4071c-1.61 2.6357-5.0662 3.4715-7.7067 1.8536-21.104-12.8679-47.6715-15.7821-78.9595-8.6464-3.015.6857-6.0204-1.2-6.7074-4.2107-.6901-3.0108 1.1914-6.0108 4.214-6.6965 34.2397-7.8085 63.6096-4.4464 87.3027 10.0072 2.6404 1.6178 3.4776 5.0571 1.8569 7.6928zm11.0017-24.4307c-2.0286 3.2914-6.3434 4.3307-9.6386 2.3057-24.161-14.8243-60.9907-19.1175-89.5685-10.4582-3.7063 1.1175-7.6208-.9675-8.7456-4.6607-1.1163-3.6996.9735-7.5996 4.6733-8.7246 32.6437-9.8872 73.2258-5.0979 100.9718 11.9217 3.2951 2.025 4.3363 6.3322 2.3076 9.6172v-.001zm.9446-25.44C114.3542 62.6572 66.558 61.078 38.899 69.4575c-4.4415 1.3446-9.1385-1.1582-10.4844-5.5918-1.346-4.4357 1.1592-9.121 5.6039-10.469 31.7506-9.6213 84.5324-7.7624 117.8855 12.0022 4.0036 2.3668 5.313 7.5172 2.941 11.4997-2.3614 3.9878-7.5349 5.3025-11.517 2.9346h-.0043zm101.4955 3.2914c-15.5206-3.6942-18.279-6.2871-18.279-11.7353 0-5.1472 4.8515-8.611 12.075-8.611 6.9983 0 13.9321 2.6303 21.2094 8.0453.2147.1639.4937.2293.762.1864.2791-.0407.5153-.1896.6763-.4136l7.5778-10.6628c.3113-.4393.2254-1.0447-.1932-1.38-8.662-6.9354-18.4079-10.3072-29.8068-10.3072-16.755 0-28.4651 10.0382-28.4651 24.4007 0 15.4018 10.1002 20.8554 27.5527 25.065 14.8444 3.4147 17.356 6.2754 17.356 11.3883 0 5.6678-5.0662 9.1928-13.2236 9.1928-9.059 0-16.4544-3.0536-24.7191-10.1893-.204-.1821-.483-.2571-.7406-.2464-.2791.0214-.526.15-.6977.3536l-8.5009 10.0928c-.3542.4286-.3113 1.05.0966 1.4143 9.6172 8.5714 21.4454 13.0929 34.2183 13.0929 18.0536 0 29.7209-9.8465 29.7209-25.0929.0322-12.8646-7.6852-19.9896-26.5868-24.5796l-.0322-.014zm67.4705-15.2785c-7.8247 0-14.2433 3.0771-19.5456 9.3825v-7.0972c0-.5603-.4508-1.0168-1.009-1.0168h-13.8998c-.5581 0-1.009.4565-1.009 1.0168v78.8582c0 .5572.4509 1.0179 1.009 1.0179h13.8998c.5582 0 1.009-.4607 1.009-1.0179v-24.8892c5.3023 5.925 11.721 8.8285 19.5456 8.8285 14.5438 0 29.2701-11.175 29.2701-32.5382.0215-21.3675-14.7048-32.5457-29.2594-32.5457l-.0107.001zm13.1055 32.5446c0 10.874-6.7084 18.4704-16.3255 18.4704-9.4991 0-16.669-7.9393-16.669-18.4704 0-10.5321 7.1699-18.4693 16.669-18.4693 9.4561-.001 16.3255 7.7647 16.3255 18.4682v.0011zm53.8927-32.5446c-18.7299 0-33.4025 14.3957-33.4025 32.7771 0 18.1843 14.576 32.4236 33.1771 32.4236 18.7943 0 33.5099-14.3464 33.5099-32.656 0-18.2476-14.619-32.5426-33.2845-32.5426v-.0021zm0 51.1221c-9.9606 0-17.474-7.9928-17.474-18.5828 0-10.6383 7.2558-18.3579 17.2486-18.3579 10.025 0 17.5814 7.9896 17.5814 18.5904 0 10.636-7.2987 18.3503-17.356 18.3503zm73.2773-49.8536H437.27V53.5082c0-.5593-.4508-1.0157-1.009-1.0157h-13.8997c-.5582 0-1.0197.4564-1.0197 1.0157v15.6064h-6.6762c-.5582 0-1.009.4565-1.009 1.0168v11.9218c0 .5593.4508 1.0168 1.009 1.0168h6.6762v30.8518c0 12.4607 6.2147 18.7821 18.483 18.7821 4.9803 0 9.1127-1.0285 13.009-3.2357.322-.1714.5151-.5143.5151-.8786v-11.3571c0-.3429-.1824-.675-.483-.8571-.3005-.1929-.6762-.2036-.9874-.0429-2.6727 1.3393-5.2594 1.9607-8.1575 1.9607-4.4544 0-6.4508-2.025-6.4508-6.5464V83.0754h15.2952c.5581 0 1.009-.4565 1.009-1.0168V70.1379c.0214-.5604-.4294-1.0168-.9983-1.0168l-.0107-.0065zm53.2809.0611V67.259c0-5.6389 2.1681-8.1535 7.0196-8.1535 2.898 0 5.2272.5742 7.8355 1.4421.322.1007.6547.0504.9123-.1414.2683-.1918.4186-.4993.4186-.825V47.8918c0-.4468-.279-.8422-.7191-.974-2.7478-.8174-6.2684-1.6564-11.5492-1.6564-12.8265 0-19.6208 7.215-19.6208 20.8575v2.9357h-6.6762c-.5581 0-1.0197.4565-1.0197 1.0158v11.9828c0 .5593.4616 1.0168 1.0197 1.0168h6.6762v47.5768c0 .5678.4616 1.0178 1.0197 1.0178h13.889c.569 0 1.0198-.45 1.0198-1.0178V83.0732h12.9767l19.8784 47.5736c-2.254 4.9928-4.4759 5.9893-7.5027 5.9893-2.4473 0-5.034-.7286-7.6637-2.175-.2469-.1286-.5474-.15-.805-.075-.2684.0964-.4938.2893-.6011.5464l-4.712 10.3179c-.2254.4928-.0322 1.0607.44 1.3178 4.916 2.6572 9.349 3.7929 14.8337 3.7929 10.2612 0 15.9392-4.7786 20.9303-17.6143l24.1073-62.1825c.1288-.3129.0859-.6664-.1073-.944-.1825-.2753-.4938-.4414-.8265-.4414H562.551c-.44 0-.8265.2754-.966.6815l-14.823 42.2507-16.2289-42.2786c-.1503-.3932-.526-.6536-.9445-.6536h-23.7424v-.0032zm-30.891-.061h-13.8997c-.5582 0-1.0197.4564-1.0197 1.0167v60.5154c0 .5678.4615 1.0178 1.0197 1.0178h13.8998c.5581 0 1.0197-.45 1.0197-1.0178v-60.511a1.0154 1.0154 0 0 0-1.0197-1.0169v-.0043zm-6.8693-27.5561c-5.5063 0-9.9714 4.4485-9.9714 9.9439 0 5.4986 4.4651 9.9525 9.9714 9.9525 5.5062 0 9.9606-4.454 9.9606-9.9525 0-5.4943-4.4651-9.944-9.9606-9.944zm121.7388 47.0143c-5.4955 0-9.7782-4.409-9.7782-9.7629 0-5.354 4.3363-9.8132 9.8319-9.8132 5.4955 0 9.7781 4.4078 9.7781 9.7575 0 5.354-4.3363 9.8186-9.8318 9.8186zm.0537-18.6054c-5.0126 0-8.8015 3.975-8.8015 8.8425 0 4.8654 3.7675 8.7868 8.7478 8.7868 5.0125 0 8.8014-3.9718 8.8014-8.8425 0-4.8654-3.7674-8.7868-8.7477-8.7868zm2.1681 9.7907l2.7692 3.8657h-2.3398l-2.4902-3.5464h-2.136v3.5464h-1.9535V73.3768h4.5725c2.3936 0 3.9606 1.2182 3.9606 3.269.0108 1.68-.966 2.7063-2.372 3.1124h-.0108zm-1.653-4.6232h-2.5438v3.241h2.5439c1.2665 0 2.0286-.6203 2.0286-1.622 0-1.0544-.762-1.619-2.0286-1.619z" fill="#1ED760" fill-rule="nonzero"/></svg>