<svg xmlns="http://www.w3.org/2000/svg" viewBox="0 0 24 24" id="spotify"><path fill="#303c42" d="M12 0C5.383 0 0 5.383 0 12s5.383 12 12 12 12-5.383 12-12S18.617 0 12 0z"></path><path fill="#69f0ae" d="M12 23C5.935 23 1 18.065 1 12S5.935 1 12 1s11 4.935 11 11-4.935 11-11 11z"></path><path d="M19.382 3.868a10.94 10.94 0 0 1 2.868 7.382c0 6.065-4.935 11-11 11a10.949 10.949 0 0 1-7.382-2.868C5.882 21.598 8.777 23 12 23c6.065 0 11-4.935 11-11 0-3.223-1.402-6.118-3.618-8.132z" opacity=".1"></path><path fill="#fff" d="M1.75 12.75c0-6.065 4.935-11 11-11 2.842 0 5.427 1.093 7.382 2.868C18.118 2.402 15.223 1 12 1 5.935 1 1 5.935 1 12c0 3.223 1.402 6.118 3.618 8.132A10.949 10.949 0 0 1 1.75 12.75z" opacity=".2"></path><path fill="#303c42" d="M5.382 15.014a.499.499 0 1 0 .237.971c3.352-.817 8.081-.695 11.095 1.423a.5.5 0 1 0 .573-.817c-3.268-2.297-8.335-2.447-11.905-1.577zm-.469-3.506a.5.5 0 0 0 .174.984c5.804-1.025 9.85-.435 13.121 1.914a.502.502 0 0 0 .698-.114.501.501 0 0 0-.114-.698c-3.511-2.519-7.79-3.164-13.879-2.086zm15.368-1.922C15.706 6.48 8.796 6.451 4.333 8.029a.5.5 0 0 0 .334.943c4.225-1.493 10.754-1.477 15.052 1.442a.501.501 0 0 0 .562-.828z"></path><linearGradient id="a" x1="1.125" x2="22.875" y1="6.929" y2="17.071" gradientUnits="userSpaceOnUse"><stop offset="0" stop-color="#fff" stop-opacity=".2"></stop><stop offset="1" stop-color="#fff" stop-opacity="0"></stop></linearGradient><path fill="url(#a)" d="M12 0C5.383 0 0 5.383 0 12s5.383 12 12 12 12-5.383 12-12S18.617 0 12 0z"></path></svg>