<?xml version="1.0" encoding="utf-8"?>
<!-- Generator: Adobe Illustrator 25.0.0, SVG Export Plug-In . SVG Version: 6.00 Build 0)  -->
<svg version="1.1" id="Capa_1" xmlns="http://www.w3.org/2000/svg" xmlns:xlink="http://www.w3.org/1999/xlink" x="0px" y="0px"
	 viewBox="0 0 28.3 28.3" style="enable-background:new 0 0 28.3 28.3;" xml:space="preserve">
<style type="text/css">
	.st0{fill:#7DD787;}
	.st1{fill:#FFFFFF;}
</style>
<circle class="st0" cx="14.2" cy="14.2" r="13.6"/>
<g>
	<path class="st1" d="M21.2,16.3c-0.2,0.3-0.5,0.5-0.9,0.5c-0.2,0-0.4,0-0.5-0.1c-2.7-1.6-5.8-1.8-7.9-1.7c-2.3,0.1-4.1,0.5-4.1,0.5
		c-0.5,0.1-1.1-0.2-1.2-0.7c-0.1-0.5,0.2-1.1,0.7-1.2c0.1,0,1.9-0.5,4.5-0.6c1.5-0.1,3,0.1,4.3,0.3c1.7,0.3,3.3,0.9,4.7,1.7
		C21.3,15.2,21.5,15.8,21.2,16.3L21.2,16.3z M22.2,13.3c-0.2,0-0.4-0.1-0.6-0.2C15.2,9.4,7,11.6,6.9,11.6c-0.7,0.2-1.3-0.2-1.5-0.9
		c-0.2-0.7,0.2-1.3,0.9-1.5c0.1,0,2.4-0.6,5.5-0.7c1.9-0.1,3.6,0.1,5.3,0.4c2.1,0.4,4,1.1,5.7,2.1c0.6,0.3,0.8,1.1,0.4,1.7
		C23,13,22.6,13.3,22.2,13.3L22.2,13.3z"/>
	<path class="st1" d="M19.6,19.6c-0.2,0.3-0.4,0.4-0.7,0.4c-0.1,0-0.3,0-0.4-0.1c-2.3-1.3-4.9-1.5-6.6-1.5c-2,0.1-3.4,0.5-3.4,0.5
		c-0.5,0.1-0.9-0.1-1.1-0.6c-0.1-0.5,0.1-0.9,0.6-1.1c0.1,0,1.6-0.4,3.8-0.5c1.3,0,2.5,0,3.7,0.3c1.5,0.3,2.8,0.8,3.9,1.4
		C19.7,18.7,19.8,19.2,19.6,19.6L19.6,19.6z"/>
</g>
<path d="M14.2,28.3c-3.8,0-7.3-1.5-10-4.2C1.5,21.5,0,18,0,14.2c0-2.8,0.8-5.6,2.4-7.9C2.6,6,2.9,5.9,3.2,6.1
	c0.3,0.2,0.3,0.5,0.2,0.8C1.9,9,1.1,11.6,1.1,14.2c0,7.2,5.9,13.1,13.1,13.1s13.1-5.9,13.1-13.1S21.4,1.1,14.2,1.1
	c-2.8,0-5.4,0.9-7.7,2.5C6.2,3.8,5.9,3.7,5.7,3.5C5.5,3.2,5.6,2.9,5.8,2.7C8.3,0.9,11.1,0,14.2,0c3.8,0,7.3,1.5,10,4.2
	c2.7,2.7,4.2,6.2,4.2,10s-1.5,7.3-4.2,10C21.5,26.9,18,28.3,14.2,28.3z"/>
<path d="M4.2,5.4c-0.1,0-0.3,0-0.4-0.1c-0.2-0.2-0.2-0.6,0-0.8l0,0c0.2-0.2,0.6-0.2,0.8,0c0.2,0.2,0.2,0.6,0,0.8
	C4.5,5.4,4.4,5.4,4.2,5.4z"/>
<path d="M20.3,17.3c-0.3,0-0.5-0.1-0.8-0.2c-2.6-1.5-5.5-1.7-7.6-1.7c-2.2,0.1-3.9,0.5-4,0.5c-0.8,0.2-1.7-0.3-1.9-1.1
	c-0.2-0.8,0.3-1.7,1.1-1.9c0.2-0.1,2.1-0.5,4.6-0.6c1.6-0.1,3.1,0.1,4.5,0.3c1.8,0.3,3.4,0.9,4.9,1.8c0.7,0.4,1,1.4,0.6,2.1
	c0,0,0,0,0,0C21.4,17,20.9,17.3,20.3,17.3z M12.5,14.3c2.1,0,5,0.3,7.6,1.8c0.1,0,0.2,0.1,0.2,0.1c0.2,0,0.3-0.1,0.4-0.2
	c0.1-0.2,0.1-0.5-0.2-0.6c-1.3-0.8-2.8-1.3-4.5-1.6c-1.3-0.3-2.7-0.4-4.2-0.3C9.3,13.5,7.5,14,7.5,14c-0.2,0.1-0.4,0.3-0.3,0.6
	c0.1,0.2,0.3,0.4,0.6,0.3c0.1,0,1.8-0.5,4.2-0.6C12.1,14.3,12.3,14.3,12.5,14.3z M22.2,13.8c-0.3,0-0.6-0.1-0.9-0.2
	C15.1,10,7.1,12.1,7,12.1c-0.5,0.1-0.9,0.1-1.4-0.2c-0.4-0.2-0.7-0.6-0.8-1.1C4.7,10.4,4.8,9.9,5,9.5c0.2-0.4,0.6-0.7,1.1-0.8
	c0.1,0,2.4-0.7,5.7-0.8c1.9-0.1,3.7,0.1,5.4,0.4c2.2,0.4,4.2,1.1,5.9,2.2c0.4,0.2,0.7,0.6,0.8,1.1c0.1,0.5,0.1,0.9-0.2,1.4
	C23.4,13.5,22.8,13.8,22.2,13.8z M12.6,10.4c2.8,0,6.2,0.5,9.2,2.2c0.1,0.1,0.2,0.1,0.3,0.1c0.2,0,0.5-0.1,0.6-0.3
	c0.1-0.2,0.1-0.3,0.1-0.5c0-0.2-0.2-0.3-0.3-0.4c-1.6-1-3.5-1.6-5.6-2C15.3,9.1,13.6,9,11.8,9C8.7,9.1,6.5,9.7,6.4,9.7
	C6.2,9.8,6,9.9,6,10.1c-0.1,0.2-0.1,0.3-0.1,0.5s0.2,0.3,0.3,0.4c0.2,0.1,0.3,0.1,0.5,0.1C6.8,11.1,9.3,10.4,12.6,10.4z"/>
<path d="M18.9,20.6c-0.2,0-0.5-0.1-0.7-0.2c-2.1-1.3-4.6-1.5-6.3-1.4c-1.9,0.1-3.3,0.4-3.3,0.4c-0.7,0.2-1.5-0.2-1.7-1
	c-0.2-0.7,0.2-1.5,1-1.7c0.1,0,1.7-0.5,3.9-0.5c1.3,0,2.6,0,3.8,0.3c1.5,0.3,2.9,0.8,4.1,1.5c0.3,0.2,0.6,0.5,0.7,0.9
	c0.1,0.4,0,0.7-0.1,1.1v0C19.8,20.3,19.4,20.6,18.9,20.6z M12.3,17.9c1.8,0,4.3,0.3,6.4,1.6c0,0,0.1,0,0.2,0c0.1,0,0.2-0.1,0.3-0.2
	l0,0c0-0.1,0.1-0.2,0-0.2c0-0.1-0.1-0.1-0.1-0.2c-1.1-0.6-2.4-1.1-3.8-1.4c-1.1-0.2-2.3-0.3-3.5-0.3C9.6,17.3,8,17.8,8,17.8
	c-0.2,0-0.3,0.2-0.2,0.4c0,0.2,0.2,0.3,0.4,0.2c0,0,1.5-0.4,3.6-0.5C11.9,17.9,12.1,17.9,12.3,17.9z"/>
<path d="M14.2,25.9c-0.3,0-0.6-0.2-0.6-0.6c0-0.3,0.2-0.6,0.6-0.6h0c0,0,0,0,0,0c0.3,0,0.6,0.2,0.6,0.6
	C14.8,25.6,14.5,25.9,14.2,25.9L14.2,25.9z"/>
<path d="M16.2,25.7c-0.3,0-0.5-0.2-0.5-0.5c-0.1-0.3,0.1-0.6,0.4-0.6c1.6-0.3,3.1-1,4.4-1.9c0.2-0.2,0.6-0.1,0.8,0.1
	c0.2,0.2,0.1,0.6-0.1,0.8c-1.4,1.1-3.1,1.8-4.8,2.1C16.3,25.7,16.3,25.7,16.2,25.7z"/>
</svg>
